# xmcd
#
# Track frame offsets: 
#        150
#        30423
#        53302
#        72935
#        94652
#        114580
#        144982
#        169348
#        198195
#        216489
#
# Disc length: 3423 seconds
#
# Revision: 0
# Processed by: cddbd v1.5.2PL0 Copyright (c) Steve Scherf et al.
# Submitted via: ExactAudioCopy v0.95a3
#
DISCID=850d5d0a
DTITLE=Alabama 3 - Live At Glastonbury 2005
DYEAR=2005
DGENRE=Gospel
TTITLE0=Hello I'm Johnny Cash
TTITLE1=Woke Up This Morning
TTITLE2=Ain't Going To Goa
TTITLE3=U Don't Dans 2 Tekno
TTITLE4=Honey In The Rock
TTITLE5=Mao Tse Tung Said
TTITLE6=Have You Seen Bruce Reynolds
TTITLE7=Twisted
TTITLE8=Up Above My Head
TTITLE9=Hypo Full Of Love
EXTD=
EXTT0=
EXTT1=
EXTT2=
EXTT3=
EXTT4=
EXTT5=
EXTT6=
EXTT7=
EXTT8=
EXTT9=
PLAYORDER=
